{
  "accessors": [
    {
      "bufferView": 2,
      "componentType": 5126,
      "count": 65532,
      "max": [
        4.460202217102051,
        14.25228500366211,
        4.115817070007324
      ],
      "min": [
        -3.785567045211792,
        10.321065902709961,
        -1.741420030593872
      ],
      "type": "VEC3"
    },
    {
      "bufferView": 2,
      "byteOffset": 786384,
      "componentType": 5126,
      "count": 65532,
      "max": [
        0.9997540712356567,
        0.997584342956543,
        0.9999686479568481
      ],
      "min": [
        -0.9999999403953552,
        -0.9999611973762512,
        -0.9977123737335205
      ],
      "type": "VEC3"
    },
    {
      "bufferView": 1,
      "componentType": 5126,
      "count": 65532,
      "max": [
        0.9972000122070313,
        0.9892160296440125
      ],
      "min": [
        0.07976199686527252,
        0.1170239970088005
      ],
      "type": "VEC2"
    },
    {
      "bufferView": 0,
      "componentType": 5125,
      "count": 352431,
      "type": "SCALAR"
    },
    {
      "bufferView": 2,
      "byteOffset": 1572768,
      "componentType": 5126,
      "count": 65532,
      "max": [
        4.512335777282715,
        14.418760299682617,
        5.512660026550293
      ],
      "min": [
        -5.300013065338135,
        10.032719612121582,
        -1.7584609985351563
      ],
      "type": "VEC3"
    },
    {
      "bufferView": 2,
      "byteOffset": 2359152,
      "componentType": 5126,
      "count": 65532,
      "max": [
        0.9999769330024719,
        0.9863021969795227,
        0.9999793171882629
      ],
      "min": [
        -0.9999877214431763,
        -0.9999958276748657,
        -0.9997316598892212
      ],
      "type": "VEC3"
    },
    {
      "bufferView": 1,
      "byteOffset": 524256,
      "componentType": 5126,
      "count": 65532,
      "max": [
        0.9988170266151428,
        0.9926239848136902
      ],
      "min": [
        0.0,
        0.00028300000121816993
      ],
      "type": "VEC2"
    },
    {
      "bufferView": 0,
      "byteOffset": 1409724,
      "componentType": 5125,
      "count": 346977,
      "type": "SCALAR"
    },
    {
      "bufferView": 2,
      "byteOffset": 3145536,
      "componentType": 5126,
      "count": 65532,
      "max": [
        4.053783893585205,
        14.229997634887695,
        3.960153102874756
      ],
      "min": [
        -3.824744939804077,
        11.938668251037598,
        -0.6114760041236877
      ],
      "type": "VEC3"
    },
    {
      "bufferView": 2,
      "byteOffset": 3931920,
      "componentType": 5126,
      "count": 65532,
      "max": [
        0.9999843239784241,
        0.9322295784950256,
        0.9999667406082153
      ],
      "min": [
        -0.9767311215400696,
        -0.9999992847442627,
        -0.9993018507957458
      ],
      "type": "VEC3"
    },
    {
      "bufferView": 1,
      "byteOffset": 1048512,
      "componentType": 5126,
      "count": 65532,
      "max": [
        1.0,
        0.7977870106697083
      ],
      "min": [
        0.003903999924659729,
        0.024630999192595482
      ],
      "type": "VEC2"
    },
    {
      "bufferView": 0,
      "byteOffset": 2797632,
      "componentType": 5125,
      "count": 357435,
      "type": "SCALAR"
    },
    {
      "bufferView": 2,
      "byteOffset": 4718304,
      "componentType": 5126,
      "count": 65532,
      "max": [
        4.244080066680908,
        14.398551940917969,
        5.257415771484375
      ],
      "min": [
        -5.265183925628662,
        10.633466720581055,
        -1.4981260299682617
      ],
      "type": "VEC3"
    },
    {
      "bufferView": 2,
      "byteOffset": 5504688,
      "componentType": 5126,
      "count": 65532,
      "max": [
        0.9999896287918091,
        0.9968813061714172,
        0.9997551441192627
      ],
      "min": [
        -0.9999927282333374,
        -0.9999803900718689,
        -0.9999569654464722
      ],
      "type": "VEC3"
    },
    {
      "bufferView": 1,
      "byteOffset": 1572768,
      "componentType": 5126,
      "count": 65532,
      "max": [
        0.9952939748764038,
        0.9650710225105286
      ],
      "min": [
        0.040658000856637955,
        0.03462899848818779
      ],
      "type": "VEC2"
    },
    {
      "bufferView": 0,
      "byteOffset": 4227372,
      "componentType": 5125,
      "count": 333015,
      "type": "SCALAR"
    },
    {
      "bufferView": 2,
      "byteOffset": 6291072,
      "componentType": 5126,
      "count": 61626,
      "max": [
        4.508382797241211,
        14.374787330627441,
        5.516129016876221
      ],
      "min": [
        -5.288538932800293,
        10.023727416992188,
        -1.7534610033035278
      ],
      "type": "VEC3"
    },
    {
      "bufferView": 2,
      "byteOffset": 7030584,
      "componentType": 5126,
      "count": 61626,
      "max": [
        0.9999926090240479,
        0.9994890689849854,
        0.9998950958251953
      ],
      "min": [
        -0.9999895691871643,
        -0.9999926686286926,
        -0.9996369481086731
      ],
      "type": "VEC3"
    },
    {
      "bufferView": 1,
      "byteOffset": 2097024,
      "componentType": 5126,
      "count": 61626,
      "max": [
        0.9996870160102844,
        0.992127001285553
      ],
      "min": [
        0.0003589999978430569,
        0.0010460000485181808
      ],
      "type": "VEC2"
    },
    {
      "bufferView": 0,
      "byteOffset": 5559432,
      "componentType": 5125,
      "count": 195624,
      "type": "SCALAR"
    }
  ],
  "asset": {
    "extras": {
      "author": "Tomáš Musílek (https://sketchfab.com/parleur)",
      "license": "CC-BY-4.0 (http://creativecommons.org/licenses/by/4.0/)",
      "source": "https://sketchfab.com/3d-models/renaissance-door-fc3de51c67b242bba3c09847f4f64ce2",
      "title": "Renaissance Door"
    },
    "generator": "Sketchfab-12.68.0",
    "version": "2.0"
  },
  "bufferViews": [
    {
      "buffer": 0,
      "byteLength": 6341928,
      "name": "floatBufferViews",
      "target": 34963
    },
    {
      "buffer": 0,
      "byteLength": 2590032,
      "byteOffset": 6341928,
      "byteStride": 8,
      "name": "floatBufferViews",
      "target": 34962
    },
    {
      "buffer": 0,
      "byteLength": 7770096,
      "byteOffset": 8931960,
      "byteStride": 12,
      "name": "floatBufferViews",
      "target": 34962
    }
  ],
  "buffers": [
    {
      "byteLength": 16702056,
      "uri": "scene.bin"
    }
  ],
  "extensionsUsed": [
    "KHR_materials_unlit"
  ],
  "images": [
    {
      "uri": "textures/KlementinumFutra_baseColor.jpeg"
    }
  ],
  "materials": [
    {
      "doubleSided": true,
      "extensions": {
        "KHR_materials_unlit": {}
      },
      "name": "KlementinumFutra",
      "pbrMetallicRoughness": {
        "baseColorTexture": {
          "index": 0
        },
        "metallicFactor": 0.0
      }
    }
  ],
  "meshes": [
    {
      "name": "Object_0",
      "primitives": [
        {
          "attributes": {
            "NORMAL": 1,
            "POSITION": 0,
            "TEXCOORD_0": 2
          },
          "indices": 3,
          "material": 0,
          "mode": 4
        }
      ]
    },
    {
      "name": "Object_1",
      "primitives": [
        {
          "attributes": {
            "NORMAL": 5,
            "POSITION": 4,
            "TEXCOORD_0": 6
          },
          "indices": 7,
          "material": 0,
          "mode": 4
        }
      ]
    },
    {
      "name": "Object_2",
      "primitives": [
        {
          "attributes": {
            "NORMAL": 9,
            "POSITION": 8,
            "TEXCOORD_0": 10
          },
          "indices": 11,
          "material": 0,
          "mode": 4
        }
      ]
    },
    {
      "name": "Object_3",
      "primitives": [
        {
          "attributes": {
            "NORMAL": 13,
            "POSITION": 12,
            "TEXCOORD_0": 14
          },
          "indices": 15,
          "material": 0,
          "mode": 4
        }
      ]
    },
    {
      "name": "Object_4",
      "primitives": [
        {
          "attributes": {
            "NORMAL": 17,
            "POSITION": 16,
            "TEXCOORD_0": 18
          },
          "indices": 19,
          "material": 0,
          "mode": 4
        }
      ]
    }
  ],
  "nodes": [
    {
      "children": [
        1
      ],
      "matrix": [
        -0.01297359075397253,
        -0.999891996383667,
        0.00690227886661865,
        0.0,
        0.48420250415802,
        -0.012321767397224709,
        -0.874869167804718,
        0.0,
        0.8748597502708435,
        -0.008008094504475701,
        0.4843100905418396,
        0.0,
        -7.960206508636475,
        1.6506717205047612,
        -2.436470508575439,
        1.0
      ],
      "name": "Sketchfab_model"
    },
    {
      "children": [
        2,
        3,
        4,
        5,
        6
      ],
      "name": "KlementinumFutra.obj.cleaner.materialmerger.gles"
    },
    {
      "mesh": 0,
      "name": "Object_2"
    },
    {
      "mesh": 1,
      "name": "Object_3"
    },
    {
      "mesh": 2,
      "name": "Object_4"
    },
    {
      "mesh": 3,
      "name": "Object_5"
    },
    {
      "mesh": 4,
      "name": "Object_6"
    }
  ],
  "samplers": [
    {
      "magFilter": 9729,
      "minFilter": 9987,
      "wrapS": 10497,
      "wrapT": 10497
    }
  ],
  "scene": 0,
  "scenes": [
    {
      "name": "Sketchfab_Scene",
      "nodes": [
        0
      ]
    }
  ],
  "textures": [
    {
      "sampler": 0,
      "source": 0
    }
  ]
}
